<svg width="137" height="32" viewBox="0 0 137 32" fill="none" xmlns="http://www.w3.org/2000/svg">
<g clip-path="url(#clip0_7735_5233)">
<path d="M25.8116 0H0V27.1353H25.8116V0Z" fill="black"/>
<path d="M12.6295 9.49564C12.6059 10.0039 12.582 10.5438 12.5581 11.1155C12.5553 11.6873 12.5949 12.2487 12.6769 12.7998C12.4645 12.9259 12.2205 13.02 11.9449 13.0821C11.6692 13.1443 11.3832 13.1747 11.0867 13.1733C11.0472 12.5801 10.8699 12.018 10.5548 11.487C10.2609 10.956 9.86064 10.5199 9.354 10.1786C8.84737 9.83728 8.24463 9.66487 7.54573 9.6615C6.88919 9.65825 6.35896 9.81451 5.95502 10.1302C5.57226 10.446 5.37958 10.8687 5.377 11.3982C5.37525 11.7582 5.44782 12.0762 5.59473 12.3523C5.76281 12.6284 6.11081 12.9266 6.63875 13.2469C7.18795 13.5461 8.02265 13.9207 9.14294 14.371C10.2845 14.8001 11.1825 15.2281 11.837 15.6549C12.4915 16.0816 12.9551 16.5605 13.2278 17.0913C13.5005 17.6221 13.6351 18.2687 13.6313 19.0311C13.627 19.9206 13.369 20.703 12.8574 21.3782C12.3459 22.0534 11.6444 22.5795 10.7531 22.9563C9.88294 23.3121 8.89727 23.4874 7.79597 23.482C6.52529 23.4758 5.50919 23.3755 4.74769 23.1812C4.00748 22.9658 3.27826 22.6657 2.56006 22.281C2.60406 21.9424 2.62726 21.5295 2.62964 21.0424C2.65319 20.5554 2.66616 20.0683 2.66853 19.5812C2.67091 19.0941 2.65174 18.681 2.61104 18.3419C2.78109 18.2157 3.01446 18.1321 3.31117 18.0912C3.62916 18.0292 3.94699 17.999 4.26467 18.0006C4.42759 19.3357 4.83571 20.3331 5.48904 20.9928C6.14237 21.6525 7.01971 21.9851 8.12094 21.9904C8.98926 21.9947 9.65732 21.8073 10.1251 21.4284C10.6141 21.0496 10.86 20.5637 10.8629 19.9706C10.8648 19.5894 10.7711 19.2607 10.5818 18.9844C10.4137 18.7083 10.0868 18.4313 9.601 18.1537C9.11528 17.876 8.39679 17.5442 7.4456 17.1584C6.30426 16.6868 5.38511 16.2482 4.68818 15.8424C4.01244 15.4367 3.51707 14.9578 3.20207 14.4055C2.90826 13.8535 2.76342 13.1539 2.76756 12.3067C2.77086 11.629 2.94313 11.0474 3.28436 10.562C3.62569 10.0554 4.06187 9.64449 4.59288 9.32939C5.14518 8.99324 5.72877 8.75247 6.34367 8.60726C6.95869 8.44081 7.53091 8.35887 8.06038 8.36145C9.01342 8.36615 9.84952 8.46549 10.5686 8.65961C11.2878 8.85373 11.9747 9.13243 12.6295 9.49564ZM21.4794 23.5487C20.2299 23.5426 19.2996 23.2204 18.6885 22.5821C18.0988 21.9227 17.8074 20.8729 17.8144 19.4327L17.8564 10.8237C17.5393 10.7162 17.2114 10.6299 16.8729 10.5647C16.5344 10.4783 16.1005 10.4233 15.5712 10.3995C15.5725 10.1242 15.5948 9.89135 15.6381 9.70094C15.6815 9.48935 15.7567 9.25678 15.8638 9.00317L17.8652 9.0129L17.8857 4.81956C18.3098 4.71573 18.7235 4.54832 19.1271 4.31732C19.5518 4.08642 19.9237 3.83409 20.2427 3.56032C20.454 3.64607 20.5911 3.77381 20.6538 3.94355C20.7165 4.11328 20.7462 4.53701 20.7429 5.21472L20.7243 9.02686L24.8541 9.04698C24.8531 9.25877 24.8308 9.49167 24.7872 9.74555C24.7437 9.97832 24.6684 10.211 24.5614 10.4434C23.7988 10.4609 23.0997 10.5104 22.464 10.592C21.8283 10.6524 21.2455 10.7343 20.7155 10.8376L20.6768 18.7795C20.6733 19.4784 20.7446 20.0612 20.8906 20.5278C21.0367 20.9733 21.2469 21.3027 21.5211 21.5158C21.7955 21.7289 22.1232 21.8364 22.5044 21.8382C22.9492 21.8404 23.3306 21.7787 23.649 21.6532C23.9884 21.5278 24.3071 21.3387 24.6048 21.086C24.8786 21.405 25.0357 21.7553 25.0762 22.1367C24.7354 22.5374 24.2149 22.8738 23.5146 23.1457C22.8355 23.4177 22.1571 23.552 21.4794 23.5487ZM34.1491 23.6105C32.7089 23.6035 31.4503 23.2903 30.3732 22.6708C29.2962 22.0302 28.4639 21.1472 27.8764 20.0219C27.289 18.8753 26.999 17.5397 27.0064 16.0148C27.0135 14.5746 27.3269 13.2843 27.9466 12.1436C28.5664 11.003 29.4179 10.107 30.5012 9.45573C31.5845 8.80449 32.8251 8.4823 34.2228 8.48912C35.7265 8.4964 37.0063 8.82037 38.0621 9.46089C39.1391 10.1015 39.9607 10.995 40.5269 12.1415C41.0933 13.2667 41.3728 14.5812 41.3655 16.0848C41.3585 17.525 41.0451 18.8153 40.4253 19.956C39.8267 21.0968 38.9858 21.9928 37.9025 22.644C36.8404 23.2954 35.5892 23.6176 34.1491 23.6105ZM34.4106 22.0869C35.6814 22.0932 36.6263 21.5788 37.2455 20.5441C37.8649 19.4882 38.1787 18.1237 38.1868 16.4505C38.1932 15.1375 37.9976 14.0035 37.5998 13.0484C37.2234 12.0724 36.7081 11.3286 36.054 10.8171C35.4001 10.2845 34.6813 10.0162 33.8977 10.0124C32.6694 10.0064 31.7457 10.4996 31.1267 11.492C30.5288 12.4845 30.226 13.7749 30.2182 15.3633C30.2113 16.7823 30.3748 18.0009 30.7087 19.0191C31.0639 20.0162 31.5579 20.7811 32.1906 21.3136C32.8235 21.825 33.5635 22.0828 34.4106 22.0869ZM49.016 18.7272C49.0115 19.6379 49.1035 20.3372 49.2917 20.8252C49.48 21.2921 49.7855 21.6219 50.2081 21.8145C50.6308 21.986 51.1704 22.0945 51.8267 22.1401C51.8895 22.3098 51.9308 22.5112 51.9509 22.7443C51.971 22.9562 51.9803 23.2104 51.9789 23.5069C51.6613 23.4842 51.2802 23.4611 50.8356 23.4378C50.412 23.4357 49.9567 23.4229 49.4697 23.3994C48.9826 23.397 48.4849 23.3945 47.9766 23.3921C47.2354 23.3884 46.4518 23.3847 45.6258 23.3806C44.8209 23.3978 44.2066 23.4266 43.7828 23.4669C43.7843 23.1704 43.7961 22.9163 43.8183 22.7046C43.8406 22.4718 43.884 22.2708 43.9484 22.1017C44.5204 22.0621 44.9656 21.969 45.2839 21.8223C45.6025 21.6544 45.8262 21.3802 45.9551 20.9996C46.0842 20.5978 46.1504 20.0475 46.1538 19.3486L46.1693 16.1718L49.0284 16.1857L49.016 18.7272ZM49.0386 14.0891L49.0264 16.5987L46.1673 16.5848L46.1845 13.0586L49.0587 9.95926C49.0552 10.6793 48.9885 11.3355 48.8585 11.928C48.7287 12.4991 48.6094 13.0704 48.5007 13.6417L49.0386 14.0891ZM48.341 13.8315C48.5768 13.2396 48.7592 12.7535 48.8882 12.3728C49.0171 11.9923 49.1563 11.6753 49.3058 11.4218C49.7753 10.6828 50.3289 10.0714 50.9667 9.58737C51.6044 9.10337 52.3363 8.86339 53.1622 8.86743C53.967 8.87133 54.6964 9.12905 55.3505 9.64052C55.3064 9.97918 55.2622 10.3708 55.2176 10.8153C55.1732 11.2598 55.1392 11.7045 55.1158 12.1491C55.1137 12.5938 55.1117 13.0068 55.1098 13.388C54.9189 13.4506 54.6539 13.5129 54.3147 13.5747C53.9967 13.6367 53.6577 13.6669 53.2976 13.6651C53.2603 12.6483 53.0941 11.9804 52.7992 11.6612C52.5254 11.3422 52.1767 11.1817 51.7531 11.1796C51.3931 11.1779 51.0003 11.3878 50.5746 11.8092C50.1491 12.2096 49.7864 12.7478 49.4866 13.4241C49.1868 14.1004 49.0349 14.8515 49.0309 15.6775L48.341 13.8315ZM46.1673 16.5848L46.1845 13.0586C46.187 12.5503 46.136 12.137 46.0317 11.8189C45.9273 11.5007 45.7061 11.256 45.3681 11.0849C45.0301 10.9139 44.5117 10.816 43.8129 10.7914C43.814 10.5585 43.8362 10.3468 43.8795 10.1564C43.9228 9.96601 43.9978 9.78632 44.1046 9.61742C44.7613 9.57824 45.5137 9.45487 46.3619 9.24719C47.2101 9.03957 47.8783 8.80985 48.3667 8.55808C48.557 8.62255 48.7152 8.761 48.8412 8.97339C48.9885 9.16472 49.061 9.49332 49.0587 9.95926L46.1673 16.5848ZM68.003 14.0227C68.5603 12.67 68.692 11.7494 68.3975 11.2608C68.1248 10.7512 67.5232 10.4094 66.592 10.2354C66.5086 10.002 66.4457 9.77937 66.4047 9.56738C66.3842 9.33429 66.3749 9.10125 66.3763 8.86829C66.8634 8.89185 67.3611 8.91548 67.8687 8.9391C68.377 8.94162 68.9276 8.94433 69.5206 8.94718C70.1136 8.95009 70.6749 8.9528 71.2043 8.95538C71.7338 8.93679 72.2322 8.91806 72.6981 8.89913C72.6968 9.11092 72.6855 9.33329 72.663 9.56613C72.6617 9.79909 72.6074 10.0318 72.5009 10.2642C72.119 10.3471 71.7901 10.4938 71.5134 10.7042C71.2586 10.9147 71.0131 11.2418 70.7781 11.6854C70.5432 12.129 70.254 12.7524 69.9111 13.5555L65.1873 24.6515C64.5872 26.0887 64.0415 27.2509 63.5501 28.138C63.0798 29.0252 62.6318 29.7008 62.2059 30.1646C61.8012 30.6286 61.3867 30.9443 60.9623 31.1116C60.5591 31.2791 60.114 31.3616 59.6269 31.3593C58.9915 31.3561 58.4836 31.269 58.1032 31.0977C57.744 30.9265 57.4589 30.7662 57.2478 30.617C57.1647 30.2989 57.1348 29.8963 57.1584 29.4094C57.1818 28.9435 57.226 28.5731 57.2909 28.2981C57.6506 28.3634 57.9999 28.4075 58.3386 28.4303C58.6772 28.4743 59.0055 28.4971 59.3231 28.4986C59.9373 28.5016 60.5204 28.3562 61.0725 28.0624C61.6458 27.7687 62.1352 27.2945 62.5408 26.64C62.8395 26.1967 63.2885 25.3199 63.8879 24.0098C64.4872 22.7208 65.1192 21.2307 65.784 19.5397L68.003 14.0227ZM64.2367 24.1386C63.7339 23.0136 63.1996 21.8356 62.6338 20.6044C62.0892 19.3522 61.5656 18.153 61.0629 17.0069C60.5602 15.8608 60.1201 14.895 59.7427 14.1096C59.2608 13.0482 58.8517 12.252 58.5154 11.7209C58.2003 11.1899 57.8951 10.8178 57.5996 10.6045C57.3253 10.3914 57.0083 10.2522 56.6486 10.1869C56.586 9.99599 56.534 9.78394 56.4929 9.55077C56.4728 9.31774 56.4634 9.07412 56.4647 8.81997C57.0787 8.84413 57.6928 8.86829 58.3069 8.89251C58.921 8.89549 59.5034 8.89833 60.0541 8.90105C60.6047 8.9037 61.2824 8.907 62.0872 8.91091C62.8921 8.8937 63.6229 8.8761 64.2795 8.85809C64.2782 9.13342 64.2557 9.38743 64.2122 9.6202C64.19 9.83192 64.1361 10.0329 64.0504 10.223C62.9059 10.408 62.2477 10.7437 62.0759 11.23C61.9042 11.6951 62.1014 12.522 62.6674 13.7108C62.9609 14.3264 63.2961 15.0694 63.6731 15.9395C64.0502 16.7885 64.4166 17.6481 64.7724 18.5181C65.1284 19.367 65.4317 20.1204 65.6827 20.7782L64.2367 24.1386ZM79.7103 23.8328C78.4607 23.8267 77.5302 23.5045 76.9193 22.8661C76.3289 22.2067 76.0377 21.1569 76.045 19.7168L76.0867 11.1077C75.7697 11.0003 75.4421 10.914 75.1032 10.8488C74.765 10.7624 74.3309 10.7073 73.8014 10.6836C73.8027 10.4082 73.8252 10.1754 73.8689 9.985C73.9119 9.77341 73.9874 9.54084 74.0946 9.28716L76.096 9.29696L76.1165 5.10361C76.5401 4.99978 76.9544 4.83237 77.3574 4.60137C77.7823 4.37047 78.1543 4.11814 78.4733 3.84437C78.6844 3.93012 78.8214 4.05786 78.8843 4.22759C78.9472 4.39734 78.9769 4.82106 78.9736 5.49877L78.9551 9.31092L83.085 9.33104C83.0836 9.54283 83.0611 9.77566 83.0175 10.0296C82.9744 10.2624 82.899 10.495 82.7918 10.7275C82.0293 10.7449 81.3304 10.7944 80.6944 10.876C80.059 10.9365 79.476 11.0183 78.9458 11.1216L78.9074 19.0636C78.9041 19.7625 78.975 20.3452 79.1212 20.8119C79.2675 21.2574 79.4773 21.5867 79.7519 21.7998C80.0259 22.0129 80.3536 22.1204 80.7348 22.1223C81.1795 22.1245 81.5614 22.0628 81.8798 21.9372C82.2193 21.8118 82.5376 21.6228 82.8355 21.3701C83.1088 21.6891 83.2663 22.0393 83.3067 22.4208C82.9658 22.8215 82.4456 23.1578 81.7454 23.4297C81.0664 23.7017 80.388 23.8361 79.7103 23.8328ZM85.4159 23.67C85.4173 23.4582 85.4285 23.2359 85.451 23.003C85.4735 22.749 85.5172 22.5163 85.5814 22.3047C86.4286 22.3089 87.001 22.1211 87.2995 21.7413C87.6192 21.3404 87.782 20.6106 87.7866 19.5516L87.8177 13.2617C87.8197 12.7534 87.7694 12.3401 87.6649 12.0219C87.5815 11.6827 87.371 11.4275 87.0335 11.2564C86.6953 11.0853 86.1658 10.998 85.4457 10.9945C85.4471 10.7615 85.4696 10.5499 85.5126 10.3595C85.5563 10.1691 85.631 9.98944 85.7376 9.82054C86.0553 9.82206 86.5 9.7713 87.0725 9.66818C87.6662 9.5652 88.2387 9.43032 88.79 9.2636C89.3413 9.09682 89.745 8.92937 89.9998 8.7612C90.1898 8.82566 90.3486 8.95347 90.4744 9.14474C90.6219 9.33607 90.6947 9.63291 90.6928 10.0353L90.6458 19.5656C90.6411 20.6245 90.7748 21.3559 91.0482 21.7596C91.3427 22.1423 91.8291 22.3353 92.5069 22.3386C92.5691 22.5506 92.6108 22.7944 92.6306 23.0698C92.6505 23.3453 92.6597 23.5571 92.6591 23.7053C92.299 23.6824 91.9178 23.6594 91.5154 23.6362C91.113 23.6342 90.7 23.6217 90.2771 23.5984C89.8747 23.5964 89.4723 23.5945 89.0699 23.5925C88.6675 23.5906 88.244 23.5885 87.7992 23.5863C87.3756 23.6054 86.962 23.614 86.5596 23.6121C86.1572 23.6313 85.776 23.6506 85.4159 23.67ZM89.0322 5.16662C88.5027 5.16403 88.0593 4.98185 87.7006 4.62006C87.3426 4.25827 87.1645 3.82323 87.1672 3.31495C87.1698 2.74313 87.3631 2.27813 87.7456 1.91995C88.1288 1.56178 88.5636 1.38388 89.0507 1.38625C89.6226 1.38905 90.0772 1.57128 90.4141 1.93297C90.7728 2.29476 90.9502 2.76157 90.9476 3.33339C90.9449 3.82049 90.7523 4.25372 90.3691 4.63307C90.0078 4.99135 89.5617 5.1692 89.0322 5.16662ZM94.9709 23.7166C94.9729 23.4201 94.9841 23.1661 95.0066 22.9543C95.0291 22.7215 95.0721 22.5205 95.1363 22.3514C95.9841 22.3131 96.5566 22.1147 96.8551 21.7561C97.1748 21.3765 97.3369 20.6572 97.3422 19.5983L97.3727 13.3083C97.3753 12.8 97.3244 12.3867 97.2198 12.0685C97.1159 11.7504 96.8942 11.5057 96.5566 11.3346C96.2184 11.1635 95.7002 11.0657 95.0013 11.0412C95.002 10.8082 95.0245 10.5965 95.0675 10.4061C95.1112 10.2157 95.186 10.036 95.2925 9.86713C95.6532 9.84767 96.098 9.78632 96.6281 9.68301C97.1794 9.55865 97.7095 9.42357 98.2185 9.27776C98.7274 9.11085 99.1199 8.95393 99.3959 8.807C99.5865 8.87146 99.7447 8.99933 99.8704 9.19053C100.018 9.38187 100.091 9.67877 100.089 10.0811C100.087 10.42 100.064 10.8117 100.019 11.2563C99.9962 11.7009 99.9293 12.3571 99.8195 13.2249L99.5018 13.2551C99.8016 12.4518 100.016 11.9127 100.144 11.6381C100.294 11.3635 100.401 11.184 100.465 11.0995C100.806 10.6141 101.37 10.1192 102.156 9.61471C102.963 9.08914 103.918 8.82904 105.019 8.83447C105.908 8.83877 106.723 9.04394 107.462 9.44997C108.202 9.85594 108.738 10.5469 109.072 11.5228C109.156 11.7773 109.196 12.127 109.194 12.5717L109.099 12.5713C109.292 12.0427 109.506 11.6202 109.74 11.3036C110.103 10.8183 110.677 10.3234 111.463 9.81895C112.249 9.29332 113.193 9.03315 114.294 9.03851C115.099 9.04248 115.84 9.21549 116.516 9.55766C117.192 9.87865 117.729 10.4214 118.128 11.1857C118.548 11.929 118.755 12.9466 118.749 14.2385L118.722 19.7025C118.718 20.4226 118.779 20.9842 118.904 21.3872C119.05 21.7691 119.261 22.0349 119.536 22.1845C119.831 22.3342 120.191 22.4312 120.614 22.4756C120.677 22.6666 120.718 22.868 120.738 23.0799C120.759 23.2917 120.768 23.546 120.767 23.8425C120.301 23.7978 119.761 23.7634 119.147 23.7393C118.554 23.7364 117.94 23.7334 117.305 23.7303C116.881 23.7282 116.447 23.7261 116.002 23.7239C115.557 23.7429 115.122 23.7514 114.699 23.7493C114.275 23.7685 113.883 23.7877 113.523 23.8071C113.525 23.5106 113.537 23.2565 113.559 23.0449C113.581 22.812 113.625 22.611 113.689 22.4419C114.261 22.4023 114.706 22.3092 115.024 22.1624C115.343 21.9946 115.567 21.7203 115.696 21.3398C115.825 20.938 115.891 20.3877 115.894 19.6888L115.918 14.8601C115.925 13.3564 115.655 12.3385 115.107 11.8064C114.58 11.2531 113.883 10.9744 113.014 10.9701C112.485 10.9676 111.944 11.1449 111.392 11.5023C110.839 11.8385 110.381 12.3975 110.017 13.1794C109.654 13.94 109.468 14.9663 109.462 16.2581L109.446 19.6573C109.44 20.7586 109.606 21.4901 109.943 21.8518C110.28 22.1923 110.851 22.3857 111.656 22.4319C111.719 22.6229 111.76 22.8243 111.78 23.0361C111.8 23.2481 111.809 23.5023 111.808 23.7988C111.279 23.7538 110.665 23.719 109.966 23.6945C109.288 23.6912 108.642 23.688 108.028 23.685C107.414 23.682 106.768 23.6788 106.09 23.6755C105.434 23.6935 104.819 23.7223 104.247 23.7618C104.248 23.4653 104.26 23.2113 104.283 22.9996C104.305 22.7667 104.348 22.5658 104.413 22.3966C104.985 22.3571 105.43 22.2639 105.748 22.1172C106.067 21.9493 106.291 21.6751 106.419 21.2945C106.548 20.8928 106.615 20.3424 106.619 19.6435L106.642 14.656C106.65 13.1523 106.38 12.1344 105.832 11.6023C105.305 11.049 104.607 10.7703 103.739 10.7661C103.209 10.7635 102.669 10.9409 102.116 11.2982C101.563 11.6344 101.105 12.1934 100.742 12.9752C100.378 13.7359 100.193 14.7622 100.187 16.0541L100.17 19.6121C100.164 20.671 100.32 21.3918 100.636 21.7746C100.951 22.1362 101.533 22.3402 102.379 22.3867C102.442 22.5776 102.483 22.779 102.504 22.9909C102.524 23.2028 102.533 23.457 102.532 23.7535C102.172 23.7305 101.77 23.7074 101.325 23.6841C100.88 23.6819 100.436 23.6691 99.9909 23.6458C99.5461 23.6436 99.1332 23.6416 98.7519 23.6397C98.3919 23.638 97.9789 23.636 97.513 23.6337C97.0471 23.6526 96.5917 23.661 96.1469 23.6588C95.7022 23.6779 95.3097 23.6971 94.9709 23.7166ZM129.907 24.0777C128.404 24.0703 127.156 23.7254 126.164 23.0428C125.172 22.3602 124.424 21.4459 123.922 20.2998C123.44 19.1326 123.203 17.8606 123.209 16.4841C123.216 15.1287 123.487 13.8804 124.022 12.7394C124.557 11.5983 125.313 10.6807 126.291 9.98659C127.29 9.29252 128.467 8.94883 129.822 8.95545C131.198 8.96214 132.298 9.264 133.122 9.86104C133.966 10.4581 134.587 11.2554 134.984 12.2528C135.403 13.2502 135.652 14.3527 135.731 15.5603C135.644 15.9835 135.483 16.3427 135.249 16.6381C134.889 16.6364 134.349 16.6337 133.629 16.6302C132.909 16.6267 132.093 16.6333 131.183 16.65C130.272 16.6456 129.34 16.6623 128.386 16.6999C127.433 16.7165 126.533 16.7439 125.686 16.7821L125.694 15.1619L132.429 15.1948C132.435 13.797 132.187 12.6627 131.683 11.7919C131.179 10.9211 130.46 10.4834 129.529 10.4789C129.02 10.4764 128.522 10.6328 128.034 10.9481C127.545 11.2422 127.14 11.7804 126.818 12.5624C126.497 13.3232 126.333 14.4132 126.326 15.8321C126.321 16.8699 126.443 17.8871 126.692 18.8837C126.963 19.8593 127.425 20.6769 128.078 21.3366C128.753 21.9753 129.704 22.2976 130.932 22.3036C131.631 22.307 132.32 22.1515 133 21.8372C133.679 21.5228 134.285 21.0704 134.817 20.48C134.986 20.5655 135.144 20.7145 135.291 20.9271C135.46 21.1185 135.555 21.299 135.574 21.4685C134.85 22.418 134.01 23.0917 133.055 23.4894C132.121 23.8873 131.072 24.0834 129.907 24.0777Z" fill="black"/>
<path d="M12.6014 10.1028C12.5803 10.6111 12.5591 11.1511 12.5379 11.723C12.5379 12.2948 12.5803 12.856 12.665 13.4067C12.4532 13.5337 12.2096 13.629 11.9343 13.6926C11.659 13.7561 11.3731 13.7879 11.0766 13.7879C11.0342 13.1949 10.8542 12.6336 10.5365 12.1042C10.24 11.5747 9.83761 11.1405 9.32932 10.8017C8.82103 10.4628 8.21744 10.2934 7.51854 10.2934C6.862 10.2934 6.33253 10.4522 5.93013 10.7699C5.54892 11.0876 5.35831 11.5112 5.35831 12.0406C5.35831 12.4007 5.43243 12.7184 5.58069 12.9937C5.75012 13.269 6.09956 13.5655 6.62903 13.8832C7.17968 14.1797 8.01624 14.5503 9.13871 14.9951C10.2824 15.4186 11.1825 15.8422 11.839 16.2658C12.4955 16.6894 12.9615 17.1659 13.2368 17.6954C13.5121 18.2248 13.6498 18.8708 13.6498 19.6332C13.6498 20.5227 13.3956 21.3063 12.8874 21.9841C12.3791 22.6618 11.6802 23.1912 10.7907 23.5725C9.92233 23.9325 8.93752 24.1125 7.83622 24.1125C6.5655 24.1125 5.54892 24.0172 4.78648 23.8266C4.04523 23.6148 3.31456 23.3183 2.59448 22.9371C2.63684 22.5982 2.65802 22.1853 2.65802 21.6981C2.6792 21.211 2.68979 20.7239 2.68979 20.2368C2.68979 19.7497 2.66861 19.3367 2.62625 18.9979C2.79568 18.8708 3.02865 18.7861 3.32515 18.7437C3.64283 18.6802 3.96051 18.6484 4.27819 18.6484C4.44762 19.9827 4.86061 20.9781 5.51715 21.6346C6.17369 22.2911 7.05261 22.6194 8.1539 22.6194C9.02223 22.6194 9.68936 22.4288 10.1553 22.0476C10.6424 21.6664 10.886 21.1793 10.886 20.5863C10.886 20.205 10.7907 19.8768 10.6 19.6014C10.4306 19.3261 10.1023 19.0508 9.61524 18.7755C9.12812 18.5001 8.40805 18.1719 7.455 17.7907C6.31135 17.3247 5.39008 16.8906 4.69118 16.4882C4.01346 16.0858 3.51576 15.6093 3.19808 15.0586C2.90157 14.508 2.75332 13.8091 2.75332 12.9619C2.75332 12.2842 2.92275 11.7018 3.26161 11.2147C3.60047 10.7064 4.03464 10.2934 4.56411 9.9757C5.11475 9.63684 5.69717 9.39329 6.31135 9.24504C6.92554 9.07561 7.49736 8.99089 8.02683 8.99089C8.97987 8.99089 9.81643 9.0862 10.5365 9.27681C11.2566 9.46741 11.9449 9.74274 12.6014 10.1028ZM21.5199 24.1125C20.2703 24.1125 19.3385 23.7948 18.7243 23.1595C18.1313 22.5029 17.8348 21.4546 17.8348 20.0144V11.4053C17.5171 11.2994 17.1888 11.2147 16.85 11.1511C16.5111 11.0664 16.0769 11.0135 15.5475 10.9923C15.5475 10.717 15.5686 10.484 15.611 10.2934C15.6534 10.0816 15.7275 9.84863 15.8334 9.59449H17.8348V5.4011C18.2583 5.2952 18.6713 5.12577 19.0737 4.89281C19.4973 4.65984 19.8679 4.40569 20.1856 4.13037C20.3974 4.21509 20.5351 4.34216 20.5986 4.51159C20.6621 4.68102 20.6939 5.10459 20.6939 5.78231V9.59449H24.8238C24.8238 9.80628 24.8026 10.0392 24.7602 10.2934C24.7179 10.5264 24.6437 10.7593 24.5378 10.9923C23.7754 11.0135 23.0765 11.0664 22.4411 11.1511C21.8058 11.2147 21.2234 11.2994 20.6939 11.4053V19.3473C20.6939 20.0462 20.768 20.6286 20.9163 21.0945C21.0645 21.5393 21.2763 21.8676 21.5516 22.0794C21.827 22.2911 22.1552 22.397 22.5365 22.397C22.9812 22.397 23.3624 22.3335 23.6801 22.2064C24.019 22.0794 24.3366 21.8887 24.6331 21.6346C24.9085 21.9523 25.0673 22.3017 25.1097 22.683C24.7708 23.0853 24.2519 23.4242 23.553 23.6995C22.8753 23.9749 22.1976 24.1125 21.5199 24.1125Z" fill="white"/>
</g>
<defs>
<clipPath id="clip0_7735_5233">
<rect width="137" height="31.7681" fill="white"/>
</clipPath>
</defs>
</svg>
